<?xml version="1.0" encoding="utf-8"?>
<!-- Generator: Adobe Illustrator 24.0.2, SVG Export Plug-In . SVG Version: 6.00 Build 0)  -->
<svg version="1.1" id="Capa_1" xmlns="http://www.w3.org/2000/svg" xmlns:xlink="http://www.w3.org/1999/xlink" x="0px" y="0px"
	 viewBox="0 0 455.6 455.6" style="enable-background:new 0 0 455.6 455.6;" xml:space="preserve">
<style type="text/css">
	.st0{fill:url(#SVGID_1_);}
	.st1{fill:url(#SVGID_2_);}
</style>
<g>
	<linearGradient id="SVGID_1_" gradientUnits="userSpaceOnUse" x1="19.0823" y1="184.7791" x2="424.0822" y2="199.7791">
		<stop  offset="0" style="stop-color:#8960FF"/>
		<stop  offset="1" style="stop-color:#5C5CFF"/>
	</linearGradient>
	<path class="st0" d="M448.8,281.3c-5.2-1.8-10.9,1-12.7,6.3c-4.8,14.1-13.7,21-27.2,21c-13.1,0-25.1-9.5-29.9-23.7
		c-1.4-4.2-5.3-6.8-9.5-6.8c-0.1,0-0.1,0-0.2,0c0,0-0.1,0-0.1,0c-4.2,0-8.1,2.6-9.5,6.8c-4.8,14.2-16.8,23.7-29.9,23.7
		c-13.1,0-25.1-9.5-29.9-23.7c-1.4-4.2-5.3-6.8-9.5-6.8c-0.1,0-0.1,0-0.2,0c0,0-0.1,0-0.1,0c-4.2,0-8.1,2.6-9.5,6.8
		c-4.8,14.2-16.8,23.7-29.9,23.7c-10.2,0-19.7-5.8-25.7-15.1c-0.1-0.4-0.3-0.8-0.5-1.3c-18.8-37-18.6-71.5-8.2-98.8
		c0.2-0.3,0.3-0.6,0.4-0.9c0-0.1,3.9-8.8,11.2-15.8c8.7-8.3,18.3-10.4,29.4-6.6c10,3.5,12.8,8.8,14.2,11.3c3.2,6,7.7,6.9,10.9,6.5
		c3.3-0.4,7.2-2.5,8.7-7.5c3.6-11,4.7-31.1-8.6-45.7c18.8-3,39.8,1.8,59.2,20.7l0.2,0.2c1.5,1.4,6.9,5.8,13.7,3.6
		c6-1.9,9.4-8,8.3-15.3l-0.1-0.5l-0.1-0.5c-0.3-1.2-7.6-29.3-31.2-54c-21.8-22.9-62.1-47.1-129.7-32.1c-33.1,7.4-62,24.3-86,50.5
		c-18.8,20.6-34.3,46.9-46.8,78C46.5,244,46,292.5,46.5,294c7.6,22.3,23.9,34.6,46.1,34.6c15.4,0,29.8-7.6,39.5-20
		c9.7,12.4,24.1,20,39.5,20s29.8-7.6,39.5-20c9.7,12.4,24.1,20,39.5,20s29.8-7.6,39.5-20c9.7,12.4,24.1,20,39.5,20s29.8-7.6,39.5-20
		c9.7,12.4,24.1,20,39.5,20c22.2,0,38.6-12.3,46.1-34.6C456.9,288.7,454.1,283,448.8,281.3z M271.7,154.6c-2.3-1.2-4.8-2.4-7.7-3.4
		c-4.7-1.6-9.3-2.6-13.9-2.9c3-2.2,6.2-4.2,9.6-6C265.7,145.3,269.6,149.3,271.7,154.6z M171.7,308.5c-13.1,0-25.1-9.5-29.9-23.7
		c-1.4-4.2-5.3-6.8-9.5-6.8c-0.1,0-0.1,0-0.2,0c0,0-0.1,0-0.1,0c-4.2,0-8.1,2.6-9.5,6.8c-4.8,14.2-16.8,23.7-29.9,23.7
		c-13,0-21.8-6.4-26.6-19.6c0.2-2.7,3.8-48.1,22.7-96.5c25.5-65.3,65.4-104.4,118.4-116.2c46.6-10.4,83.8-1.7,110.4,25.8
		c7.4,7.7,13,15.8,17.1,23.1c-30.5-17.1-66.5-14.9-96.9,7.6c-17.4,12.8-30.9,30.8-39.2,51.7c0,0.1-0.1,0.2-0.1,0.2
		c0,0.1-0.1,0.2-0.1,0.3c-2.2,5.8-4.1,11.7-5.5,17.9c-6.3,27.5-3.6,56.6,7.8,84.8C195.2,300.3,183.9,308.5,171.7,308.5z"/>
	<linearGradient id="SVGID_2_" gradientUnits="userSpaceOnUse" x1="12.1538" y1="371.8475" x2="417.1538" y2="386.8475">
		<stop  offset="0" style="stop-color:#8960FF"/>
		<stop  offset="1" style="stop-color:#5C5CFF"/>
	</linearGradient>
	<path class="st1" d="M402.8,356.3c-5.2-1.8-10.9,1-12.7,6.3c-4.8,14.1-13.7,21-27.2,21c-13.1,0-25.1-9.5-29.9-23.7
		c-1.4-4.2-5.3-6.8-9.5-6.8c0,0-0.1,0-0.1,0c0,0-0.1,0-0.1,0c-4.2,0-8.1,2.6-9.5,6.8c-4.8,14.2-16.8,23.7-29.9,23.7
		c-13.1,0-25.1-9.5-29.9-23.7c-1.4-4.2-5.3-6.8-9.5-6.8c0,0-0.1,0-0.1,0c0,0-0.1,0-0.1,0c-4.2,0-8.1,2.6-9.5,6.8
		c-4.8,14.2-16.8,23.7-29.9,23.7c-13.1,0-25.1-9.5-29.9-23.7c-1.4-4.2-5.3-6.8-9.5-6.8c0,0-0.1,0-0.1,0c0,0-0.1,0-0.1,0
		c-4.2,0-8.1,2.6-9.5,6.8c-4.8,14.2-16.8,23.7-29.9,23.7s-25.1-9.5-29.9-23.7c-1.4-4.2-5.3-6.8-9.5-6.8c0,0-0.1,0-0.1,0
		c0,0-0.1,0-0.1,0c-4.2,0-8.1,2.6-9.5,6.8c-4.8,14.2-16.8,23.7-29.9,23.7c-13.5,0-22.4-6.9-27.2-21c-1.8-5.2-7.4-8-12.7-6.3
		c-5.2,1.8-8,7.4-6.3,12.7c7.6,22.3,23.9,34.6,46.1,34.6c15.4,0,29.8-7.6,39.5-20c9.7,12.4,24.1,20,39.5,20s29.8-7.6,39.5-20
		c9.7,12.4,24.1,20,39.5,20s29.8-7.6,39.5-20c9.7,12.4,24.1,20,39.5,20s29.8-7.6,39.5-20c9.7,12.4,24.1,20,39.5,20
		c22.2,0,38.6-12.3,46.1-34.6C410.9,363.7,408.1,358,402.8,356.3z"/>
</g>
</svg>
