<?xml version="1.0" encoding="utf-8"?>
<!-- Generator: Adobe Illustrator 24.0.2, SVG Export Plug-In . SVG Version: 6.00 Build 0)  -->
<svg version="1.1" id="Capa_1" xmlns="http://www.w3.org/2000/svg" xmlns:xlink="http://www.w3.org/1999/xlink" x="0px" y="0px"
	 viewBox="0 0 425 425" style="enable-background:new 0 0 425 425;" xml:space="preserve">
<style type="text/css">
	.st0{fill:url(#SVGID_1_);}
	.st1{fill:url(#SVGID_2_);}
	.st2{fill:url(#SVGID_3_);}
	.st3{fill:url(#SVGID_4_);}
</style>
<g>
	<linearGradient id="SVGID_1_" gradientUnits="userSpaceOnUse" x1="294.945" y1="78.127" x2="351.945" y2="78.127">
		<stop  offset="0" style="stop-color:#8960FF"/>
		<stop  offset="1" style="stop-color:#5C5CFF"/>
	</linearGradient>
	<path class="st0" d="M351.9,78.1c0-15.7-12.8-28.5-28.5-28.5s-28.5,12.8-28.5,28.5s12.8,28.5,28.5,28.5S351.9,93.8,351.9,78.1z
		 M323.4,86.6c-4.7,0-8.5-3.8-8.5-8.5s3.8-8.5,8.5-8.5s8.5,3.8,8.5,8.5S328.1,86.6,323.4,86.6z"/>
	<linearGradient id="SVGID_2_" gradientUnits="userSpaceOnUse" x1="5.6052" y1="212.4935" x2="419.3812" y2="212.4935">
		<stop  offset="0" style="stop-color:#8960FF"/>
		<stop  offset="1" style="stop-color:#5C5CFF"/>
	</linearGradient>
	<path class="st1" d="M418.8,45c-1.9-5.2-7.6-7.9-12.8-6l-10.5,3.7C382.3,17.4,355.8,0,325.4,0c-0.2,0-0.4,0-0.6,0
		c-28.3,0.2-54.4,15.7-68.3,40.4c-15.5,27.6-32.9,51.9-51.8,72.4C148.9,173.1,69,257.4,66.2,260.3l-54.9,55.8
		c-6.8,6.9-7.6,17.3-1.9,25.2c5.7,7.9,15.8,10.3,24.5,6c35.5-17.7,77.2-19.3,114.6-4.2c18.5,7.5,38,11.6,58,12.4l20.9,62.6
		c1.4,4.2,5.3,6.8,9.5,6.8c1,0,2.1-0.2,3.2-0.5c5.2-1.7,8.1-7.4,6.3-12.6l-18.9-56.7c5.3-0.4,10.6-1.1,15.8-1.9l21.7,65
		c1.4,4.2,5.3,6.8,9.5,6.8c1,0,2.1-0.2,3.2-0.5c5.2-1.7,8.1-7.4,6.3-12.6l-21-63.2c28-8.2,53.7-23.4,74.9-44.7
		c33.2-33.4,51.3-77.5,51-124.3c-0.1-15.6-2.3-31-6.4-45.9c14.4-15,22.4-35.1,22-56.1c-0.1-5.6-0.8-11-2-16.2l10.3-3.7
		C418,55.9,420.7,50.2,418.8,45z M384.4,78c0.3,17.3-7,33.8-20,45.3c-3,2.6-4.1,6.7-2.9,10.5c4.7,14.8,7.1,30.3,7.3,46
		c0.3,41.4-15.8,80.5-45.2,110.1c-7.6,7.6-15.8,14.3-24.5,20.1c-4.4-13.7-6.6-27.9-6.6-42.5c0-30.7,9.8-59.8,28.3-84.1
		c3.3-4.4,2.5-10.7-1.9-14c-4.4-3.3-10.7-2.5-14,1.9c-21.2,27.9-32.4,61.2-32.4,96.3c0,18.1,3,35.8,8.9,52.6
		c-20.8,10.2-43.8,15.6-67.6,15.6c-20,0-39.4-3.7-57.8-11.1c-19.5-7.8-39.9-11.7-60.3-11.7c-23.5,0-46.8,5.2-68.2,15.4l53.1-53.9
		c0,0,0.1-0.1,0.1-0.1c0.8-0.9,82.1-86.6,138.7-147.8c20-21.6,38.4-47.2,54.6-76.2c10.3-18.4,29.9-30,51-30.2
		c21.9-0.2,41.2,11.8,51.5,29.5l-3,1.1c-5.2,1.9-7.9,7.6-6,12.8c1.5,4.1,5.3,6.6,9.4,6.6c1.1,0,2.3-0.2,3.4-0.6l3.2-1.1
		C384,71.4,384.4,74.7,384.4,78z"/>
	<linearGradient id="SVGID_3_" gradientUnits="userSpaceOnUse" x1="110.1992" y1="223.4938" x2="267.106" y2="223.4938">
		<stop  offset="0" style="stop-color:#8960FF"/>
		<stop  offset="1" style="stop-color:#5C5CFF"/>
	</linearGradient>
	<path class="st2" d="M257.1,174.2C257.1,174.2,257.1,174.2,257.1,174.2c-5.5,0-10,4.5-10,10c0,0.4,0,0.7,0,1.1
		c-0.3,22.1-9.2,43.1-24.9,58.9c-15.7,15.9-36.6,24.9-58.7,25.3c-8.9,0.2-17.6-0.9-26-3.4l83.6-92c3.7-4.1,3.4-10.4-0.7-14.1
		c-4.1-3.7-10.4-3.4-14.1,0.7l-93.4,102.8c-2.1,2.3-3,5.5-2.4,8.6c0.6,3.1,2.6,5.7,5.5,7.1c14.3,6.9,29.6,10.3,45.6,10.3
		c0.8,0,1.6,0,2.4,0c27.3-0.6,53.1-11.7,72.5-31.2c19.4-19.5,30.3-45.4,30.7-72.7c0-0.4,0-0.9,0-1.3
		C267.1,178.7,262.7,174.3,257.1,174.2z"/>
	<linearGradient id="SVGID_4_" gradientUnits="userSpaceOnUse" x1="323.9217" y1="151.2993" x2="352.8527" y2="151.2993">
		<stop  offset="0" style="stop-color:#8960FF"/>
		<stop  offset="1" style="stop-color:#5C5CFF"/>
	</linearGradient>
	<path class="st3" d="M336.9,139.7c-3.3,2.4-6.5,5-9.5,7.7c-4.2,3.6-4.6,9.9-1,14.1c2,2.3,4.8,3.4,7.6,3.4c2.3,0,4.7-0.8,6.6-2.4
		c2.7-2.3,5.5-4.6,8.3-6.7c4.4-3.3,5.4-9.6,2.1-14C347.6,137.3,341.3,136.4,336.9,139.7z"/>
</g>
</svg>
