<?xml version="1.0" encoding="utf-8"?>
<!-- Generator: Adobe Illustrator 24.0.2, SVG Export Plug-In . SVG Version: 6.00 Build 0)  -->
<svg version="1.1" id="Layer_1" xmlns="http://www.w3.org/2000/svg" xmlns:xlink="http://www.w3.org/1999/xlink" x="0px" y="0px"
	 viewBox="0 0 503.8 503.8" style="enable-background:new 0 0 503.8 503.8;" xml:space="preserve">
<style type="text/css">
	.st0{fill:url(#SVGID_1_);}
	.st1{fill:url(#SVGID_2_);}
	.st2{fill:url(#SVGID_3_);}
	.st3{fill:url(#SVGID_4_);}
</style>
<g transform="translate(1 1)">
	<g>
		<g>
			<linearGradient id="SVGID_1_" gradientUnits="userSpaceOnUse" x1="-0.902" y1="250.9024" x2="502.7061" y2="250.9024">
				<stop  offset="0" style="stop-color:#8960FF"/>
				<stop  offset="1" style="stop-color:#5C5CFF"/>
			</linearGradient>
			<path class="st0" d="M469.1,343.3H369c3.9-3.5,7.7-7.6,11.2-12.6c15.9-22.7,21-56.2,12.6-97.4c0-2.5-1.7-5-4.2-5.9s-5-0.8-7.6,0
				c-7.6,4.2-30.2,12.6-42.8,4.2c-7.6-5-11.8-15.9-10.9-33.6c0-5.9,3.4-17.6,12.6-27.7c26.9-30.2,26-78.1-0.8-110
				c-4.2-5.9-9.2-10.9-15.1-17.6c-1.7-2.5-5-3.4-7.6-2.5s-5,2.5-5.9,5c0,0-5,12.6-14.3,22.7c-7.6,8.4-17.6,7.6-24.3,4.2
				s-13.4-10.9-11.8-21.8c1.7-11.8,6.7-24.3,15.1-39.4c0.8-1.7,0.8-5,0-7.6c-1.7-2.5-4.2-4.2-6.7-4.2c-0.8,0-31.1-3.4-58.8,17.6
				c-17.6,13.4-27.7,36.1-25.2,59.6c0.8,11.8,2.5,21.8,5.9,30.2c0.8,3.4,1.7,7.6,0,11.8c-0.8,1.7-3.4,7.6-15.1,7.6
				c-0.8,0-1.7,0-1.7,0s-4.2,0.8-8.4-2.5c-4.2-4.2-6.7-11.8-6.7-22.7c0-3.4-1.7-5.9-4.2-7.6c-2.5-0.8-5.9-0.8-8.4,0.8
				c-1.7,0.8-28.5,21-28.5,50.4c0,20.1,11.8,38.6,36.9,56.2c5,2.5,21,14.3,21,26v0.8c0.8,3.4,0.8,13.4-4.2,19.3
				c-2.5,2.5-6.7,4.2-12.6,4.2c-0.8,0-0.8,0-1.7,0c-1.7,0-35.3,5-41.1-26.9c-0.8-3.4-3.4-5.9-6.7-6.7c-3.4,0-6.7,0.8-8.4,4.2
				c-0.8,2.5-29.4,51.2-11.8,92.3c5.1,11.9,13.7,21.7,25.4,29.4H32.7c-18.5,0-33.6,18.5-33.6,42c0,23.5,15.1,42,33.6,42h51.1
				c-0.5,2.7-0.7,5.5-0.7,8.4c0,27.7,22.7,50.4,50.4,50.4c20.8,0,38.7-12.8,46.4-30.8l12.6-6.5c2.3,30.5,27.4,54.1,58.6,54.1
				c31,0,56-23.4,58.5-53.7l12.8,6.6c7.8,17.8,25.6,30.3,46.1,30.3c27.7,0,50.4-22.7,50.4-50.4c0-2.9-0.3-5.7-0.7-8.4h51.1
				c18.5,0,33.6-18.5,33.6-42C502.7,361.8,487.6,343.3,469.1,343.3z M104,305.6c-8.4-20.1-2.5-43.6,3.4-59.6
				c13.4,20.1,37.8,23.5,52,21c12.6,0,20.1-5,24.3-10.1c10.1-11.8,9.2-28.5,8.4-31.9c0-23.5-26-38.6-28.5-40.3
				c-19.3-13.4-29.4-27.7-29.4-42c0-10.1,5-18.5,10.1-25.2c2.5,7.6,5.9,13.4,10.9,17.6c8.4,7.6,17.6,6.7,21,6.7
				c19.3,0,27.7-10.9,30.2-17.6c3.4-7.6,3.4-15.9,0-24.3c-2.5-7.6-4.2-15.9-5-26c-1.7-17.6,5-34.4,18.5-44.5
				c12.6-9.2,25.2-12.6,34.4-13.4c-5.9,11.8-9.2,22.7-10.9,32.7c-2.5,16.8,5.9,31.9,21,39.4c15.1,6.7,32.7,4.2,43.6-8.4
				c5-5,9.2-10.9,11.8-15.9c1.7,2.5,4.2,4.2,5.9,6.7c21.8,26,21.8,63.8,0.8,88.1c-10.1,11.8-16.8,26-16.8,38.6
				c0,23.5,5.9,39.4,19.3,47.8c15.9,10.1,36.9,5,49.5,0.8c4.2,31.9,0.8,57.1-11.8,74.7c-11.8,17.6-29.4,21.8-32.7,22.7h-44.8
				c14.7-17.6,16.4-42.9,3.6-62.1l-42-62.1l-42,62.1c-13.8,19.5-11.9,45.3,3.4,62.1h-53C130.9,337.5,112.4,324.9,104,305.6z
				 M318,434.8l-10.1-5l-0.1-0.4c-0.7-2.9-1.7-5.7-2.8-8.4l-15.5-46.6l32,11.9l19.3,7.3c-12.2,8-20.7,21.2-22.4,36.4
				C318.1,431.6,318,433,318,434.8z M273.6,333.3c-10.1,10.1-22.7,9.2-22.7,9.2h-0.8c-15.1,0-22.7-8.4-23.5-9.2
				c-10.9-10.9-12.6-29.4-3.4-42.8l27.7-41.1l26,41.1C286.2,303.9,284.5,322.3,273.6,333.3z M231.2,366.4c1.6-1.5,2.9-3.9,2.9-6.3
				h15.9h2.5h15.1c0,1.7,0.6,3.4,1.6,4.7l9,27.1c-8.2-4.3-17.5-6.7-27.4-6.7c-10.3,0-20,2.6-28.4,7.2L231.2,366.4z M15.9,385.3
				c0-13.4,7.6-25.2,16.8-25.2s16.8,11.8,16.8,25.2c0,13.4-7.6,25.2-16.8,25.2S15.9,398.7,15.9,385.3z M89.7,410.5H59.6
				c3.6-6.1,6-13.5,6.5-21.5c0-0.2,0-0.4,0-0.6c0-0.4,0-0.8,0.1-1.1c0-0.6,0-1.3,0-1.9s0-1.3,0-1.9c0-0.4,0-0.8-0.1-1.1
				c0-0.2,0-0.4,0-0.6c-0.5-8.1-2.9-15.5-6.5-21.5h97.3c0.8,0,0.8,0,1.7,0h42.9l-66.7,25.2c-0.5,0-0.9,0-1.4,0c-0.8,0-1.5,0-2.3,0.1
				c-0.2,0-0.4,0-0.6,0c-0.7,0-1.5,0.1-2.2,0.2c-0.1,0-0.1,0-0.2,0c-0.7,0.1-1.4,0.2-2,0.3c-0.3,0-0.5,0.1-0.8,0.1
				c-0.5,0.1-1,0.2-1.5,0.3c-0.5,0.1-1,0.2-1.4,0.3c-0.3,0.1-0.6,0.1-0.9,0.2c-0.5,0.1-0.9,0.2-1.4,0.4c0,0-0.1,0-0.1,0
				c-11.7,3.3-21.7,10.6-28.4,20.5C91,408.5,90.3,409.5,89.7,410.5z M133.4,469.2c-18.5,0-33.6-15.1-33.6-33.6c0-4,0.7-7.9,2-11.5
				c0.5-0.6,1-1.2,1.3-1.9c1.8-4.6,4.6-8.5,8-11.7c5-4.4,11.3-7.4,18.2-8.2c0.3,0,0.6-0.1,1-0.1c0.3,0,0.6,0,0.9-0.1
				c0.2,0,0.4,0,0.6,0c0.9,0.5,2,0.8,3.2,0.8c17.6,1.7,31.1,15.9,31.1,33.6c0,3.4,0,6.7-1.7,10.9c-0.1,0.5-0.2,1-0.3,1.6
				C159,460.9,147.1,469.2,133.4,469.2z M183.7,434.4c-0.2-8.4-2.5-16.4-6.4-23.3c-0.3-0.5-0.5-0.9-0.8-1.4c0,0,0-0.1-0.1-0.1
				c-3.6-6-8.3-11.1-14-15c-0.4-0.3-0.8-0.6-1.3-0.9l51.2-19.3L196.8,421c-1.1,2.7-2.1,5.5-2.8,8.4l-0.1,0.4l-10.1,5
				C183.7,434.7,183.7,434.5,183.7,434.4z M250.9,486c-23.5,0-42-18.5-42-42c0-23.5,18.5-42,42-42s42,18.5,42,42
				S274.4,486,250.9,486z M368.4,469.2c-13.7,0-25.5-8.3-30.7-20.1c0-0.8-0.1-1.7-0.3-2.5c-0.8-1.7-1.7-3.4-1.7-5
				c-0.4-1.2-0.6-2.2-0.7-3.1c-0.1-0.9-0.1-1.8-0.1-2.8c0,0,0,0,0,0c0-1.7,0.8-2.5,0.8-5c1.1-7.5,4.5-14,9.3-18.9
				c5.7-5.5,13.3-9.1,21.7-9.6c0,0,0.1,0,0.1,0c0.6,0,1.1,0,1.7,0c0.8,0,1.6,0,2.3,0.1c0.1,0,0.2,0,0.3,0
				c10.2,0.8,19.3,6.6,25.2,14.8c3.6,5.4,5.7,11.8,5.7,18.7C402,454.1,386.9,469.2,368.4,469.2z M372,385.4c-0.2,0-0.3,0-0.5,0
				c-0.3,0-0.7,0-1-0.1c-0.3,0-0.7,0-1,0l-69.3-25.2h34.6c0.8,0,0.8,0,0.8,0h106.5c-3.6,6.1-6,13.5-6.5,21.5c0,0.2,0,0.4,0,0.6
				c0,0.4,0,0.8-0.1,1.1c0,0.6,0,1.3,0,1.9s0,1.3,0,1.9c0,0.4,0,0.8,0.1,1.1c0,0.2,0,0.4,0,0.6c0.5,8.1,2.9,15.5,6.5,21.5h-30.2
				c-0.6-0.9-1.2-1.9-1.8-2.8C401.8,395.2,387.9,386.6,372,385.4z M469.1,410.5c-9.2,0-16.8-11.8-16.8-25.2s7.6-25.2,16.8-25.2
				s16.8,11.8,16.8,25.2S478.4,410.5,469.1,410.5z"/>
			<linearGradient id="SVGID_2_" gradientUnits="userSpaceOnUse" x1="161" y1="32.772" x2="161.5" y2="32.772">
				<stop  offset="0" style="stop-color:#8960FF"/>
				<stop  offset="1" style="stop-color:#5C5CFF"/>
			</linearGradient>
			<path class="st1" d="M108.2,41.2c5,0,8.4-3.4,8.4-8.4s-3.4-8.4-8.4-8.4s-8.4,3.4-8.4,8.4S103.2,41.2,108.2,41.2z"/>
			<linearGradient id="SVGID_3_" gradientUnits="userSpaceOnUse" x1="161" y1="158.673" x2="161.5" y2="158.673">
				<stop  offset="0" style="stop-color:#8960FF"/>
				<stop  offset="1" style="stop-color:#5C5CFF"/>
			</linearGradient>
			<path class="st2" d="M435.6,167.1c5,0,8.4-3.4,8.4-8.4s-3.4-8.4-8.4-8.4s-8.4,3.4-8.4,8.4S430.5,167.1,435.6,167.1z"/>
			<linearGradient id="SVGID_4_" gradientUnits="userSpaceOnUse" x1="161" y1="209.034" x2="161.5" y2="209.034">
				<stop  offset="0" style="stop-color:#8960FF"/>
				<stop  offset="1" style="stop-color:#5C5CFF"/>
			</linearGradient>
			<path class="st3" d="M15.9,217.4c5,0,8.4-3.4,8.4-8.4s-3.4-8.4-8.4-8.4S7.5,204,7.5,209S10.8,217.4,15.9,217.4z"/>
		</g>
	</g>
</g>
</svg>
