<?xml version="1.0" encoding="utf-8"?>
<!-- Generator: Adobe Illustrator 24.0.2, SVG Export Plug-In . SVG Version: 6.00 Build 0)  -->
<svg version="1.1" id="Layer_1" xmlns="http://www.w3.org/2000/svg" xmlns:xlink="http://www.w3.org/1999/xlink" x="0px" y="0px"
	 viewBox="0 0 512 512" style="enable-background:new 0 0 512 512;" xml:space="preserve">
<style type="text/css">
	.st0{fill:url(#SVGID_1_);}
	.st1{fill:url(#SVGID_2_);}
</style>
<g>
	<g>
		<linearGradient id="SVGID_1_" gradientUnits="userSpaceOnUse" x1="64" y1="256" x2="448" y2="256">
			<stop  offset="0" style="stop-color:#8960FF"/>
			<stop  offset="1" style="stop-color:#5C5CFF"/>
		</linearGradient>
		<path class="st0" d="M341.6,98.4c-22.2-27.7-45.1-56.3-63.9-86.4C273,4.5,264.8,0,256,0s-17,4.5-21.7,12
			c-18.8,30.1-41.8,58.7-63.9,86.4C118.1,163.7,64,231.1,64,320c0,105.9,86.1,192,192,192s192-86.1,192-192
			C448,231.1,393.9,163.7,341.6,98.4z M256,486.4c-91.9,0-166.4-74.5-166.4-166.4C89.6,204.8,192,128,256,25.6
			C320,128,422.4,204.8,422.4,320C422.4,411.9,347.9,486.4,256,486.4z"/>
	</g>
</g>
<g>
	<g>
		<linearGradient id="SVGID_2_" gradientUnits="userSpaceOnUse" x1="243.2" y1="386.364" x2="396.8" y2="386.364">
			<stop  offset="0" style="stop-color:#8960FF"/>
			<stop  offset="1" style="stop-color:#5C5CFF"/>
		</linearGradient>
		<path class="st1" d="M384,309.6c-7.1,0-12.8,5.7-12.8,12.8c0,63.5-51.7,115.2-115.2,115.2c-7.1,0-12.8,5.7-12.8,12.8
			c0,7.1,5.7,12.8,12.8,12.8c77.6,0,140.8-63.2,140.8-140.8C396.8,315.3,391.1,309.6,384,309.6z"/>
	</g>
</g>
</svg>
