<svg xmlns="http://www.w3.org/2000/svg" xmlns:xlink="http://www.w3.org/1999/xlink" viewBox="0 0 178.31 46.9"><defs><style>.cls-1{fill:none;}.cls-2{isolation:isolate;}.cls-3{clip-path:url(#clip-path);}.cls-10,.cls-11,.cls-12,.cls-13,.cls-14,.cls-15,.cls-16,.cls-17,.cls-4,.cls-5,.cls-6,.cls-7,.cls-8,.cls-9{fill-rule:evenodd;}.cls-4{fill:url(#Áåçûìÿííûé_ãðàäèåíò_555);}.cls-5{fill:url(#Áåçûìÿííûé_ãðàäèåíò_447);}.cls-10,.cls-6{fill:#35042b;}.cls-7{fill:url(#Áåçûìÿííûé_ãðàäèåíò_465);}.cls-8{fill:url(#Áåçûìÿííûé_ãðàäèåíò_465-2);}.cls-9{fill:url(#Áåçûìÿííûé_ãðàäèåíò_473);}.cls-10,.cls-14{opacity:0.64;}.cls-11,.cls-12,.cls-13{opacity:0.5;mix-blend-mode:screen;}.cls-11{fill:url(#Áåçûìÿííûé_ãðàäèåíò_529);}.cls-12{fill:url(#Áåçûìÿííûé_ãðàäèåíò_529-2);}.cls-13{fill:url(#Áåçûìÿííûé_ãðàäèåíò_529-3);}.cls-14{fill:#3b0b2e;}.cls-15{fill:url(#Áåçûìÿííûé_ãðàäèåíò_542);}.cls-16{fill:#812579;}.cls-16,.cls-17{opacity:0.6;mix-blend-mode:multiply;}.cls-17{fill:#9d4889;}</style><clipPath id="clip-path" transform="translate(-694.86 -258.56)"><rect class="cls-1" width="1000" height="400"/></clipPath><linearGradient id="Áåçûìÿííûé_ãðàäèåíò_555" x1="695.53" y1="290.29" x2="865.01" y2="290.29" gradientTransform="translate(12.3 -33.39) rotate(2.38)" gradientUnits="userSpaceOnUse"><stop offset="0" stop-color="#9f223f"/><stop offset="1" stop-color="#540443"/></linearGradient><linearGradient id="Áåçûìÿííûé_ãðàäèåíò_447" x1="775.26" y1="276.15" x2="873.21" y2="276.15" gradientTransform="translate(12.3 -33.39) rotate(2.38)" gradientUnits="userSpaceOnUse"><stop offset="0" stop-color="#9f223f"/><stop offset="1" stop-color="#541843"/></linearGradient><linearGradient id="Áåçûìÿííûé_ãðàäèåíò_465" x1="699.4" y1="291.8" x2="797.66" y2="291.8" gradientTransform="translate(12.3 -33.39) rotate(2.38)" gradientUnits="userSpaceOnUse"><stop offset="0" stop-color="#cc2a4c"/><stop offset="1" stop-color="#750e3f"/></linearGradient><linearGradient id="Áåçûìÿííûé_ãðàäèåíò_465-2" x1="729.28" y1="289.09" x2="838.29" y2="289.09" xlink:href="#Áåçûìÿííûé_ãðàäèåíò_465"/><linearGradient id="Áåçûìÿííûé_ãðàäèåíò_473" x1="774.63" y1="276.17" x2="831.83" y2="277.71" gradientTransform="matrix(1, 0.01, -0.01, 1, 4.66, -11.74)" gradientUnits="userSpaceOnUse"><stop offset="0" stop-color="#cc2a4c"/><stop offset="1" stop-color="#971d3f"/></linearGradient><linearGradient id="Áåçûìÿííûé_ãðàäèåíò_529" x1="728.99" y1="286.92" x2="785.24" y2="286.92" gradientUnits="userSpaceOnUse"><stop offset="0" stop-color="#9a2500"/><stop offset="0.26" stop-color="#6b1a00"/><stop offset="0.6" stop-color="#320c00"/><stop offset="0.86" stop-color="#0e0300"/><stop offset="1"/></linearGradient><linearGradient id="Áåçûìÿííûé_ãðàäèåíò_529-2" x1="699" y1="289.49" x2="745.41" y2="289.49" xlink:href="#Áåçûìÿííûé_ãðàäèåíò_529"/><linearGradient id="Áåçûìÿííûé_ãðàäèåíò_529-3" x1="775.28" y1="273.43" x2="811.58" y2="273.43" xlink:href="#Áåçûìÿííûé_ãðàäèåíò_529"/><linearGradient id="Áåçûìÿííûé_ãðàäèåíò_542" x1="782.59" y1="265.71" x2="842.61" y2="265.71" gradientUnits="userSpaceOnUse"><stop offset="0" stop-color="#ff709a"/><stop offset="1" stop-color="#7370a7"/></linearGradient></defs><title>camp_fire</title><g class="cls-2"><g id="cave"><g class="cls-3"><path class="cls-4" d="M695.79,295.33s-3.55-3,3.21-9.12c0,0,12.66-1.82,35.73-2.21s60.16-10.52,60.16-10.52,43.08-3.18,70,9.15l-2.1,11.31s-75.6,11.94-104.12,11.44C758.68,305.38,727.41,304.73,695.79,295.33Z" transform="translate(-694.86 -258.56)"/><path class="cls-5" d="M873.16,281.16s-19.84-5-43.14,4.48L776.17,278s-1.87-3.85.41-9.72A230.57,230.57,0,0,1,834,269.85S865.43,276,873.16,281.16Z" transform="translate(-694.86 -258.56)"/><path class="cls-6" d="M830,285.64s-2.18-8.94,2.46-11.14,22.4-1.5,40.68,6.66c0,0-1.2,7.13-5.53,11.5l-4.83,1.28,1.68-9.4S851.71,282.09,830,285.64Z" transform="translate(-694.86 -258.56)"/><path class="cls-7" d="M699,286.21a341.53,341.53,0,0,0,60,10.28s19.64-2,37.86.18c0,0-53.5-6.24-67.92-12.45C729,284.22,708.06,275.65,699,286.21Z" transform="translate(-694.86 -258.56)"/><path class="cls-8" d="M837.84,290.24s-55.33-5.19-73.31-9.85c0,0-24.46-6.41-35.54,3.83,0,0,21.75,7.22,67.92,12.45C796.91,296.67,816.05,288.49,837.84,290.24Z" transform="translate(-694.86 -258.56)"/><path class="cls-9" d="M832.48,274.5s-35.27,2.78-55.9-6.21a11.41,11.41,0,0,0-.41,9.72s37.57,6,53.85,7.63C830,285.64,828.07,278.55,832.48,274.5Z" transform="translate(-694.86 -258.56)"/><path class="cls-10" d="M830,285.64,842.3,287s17.62-3.06,24.93-1.88C867.23,285.16,845.38,280.76,830,285.64Z" transform="translate(-694.86 -258.56)"/><path class="cls-11" d="M736.91,279.91a192.13,192.13,0,0,0,48.33,14s-37.65-2.5-56.25-9.72C729,284.22,733.61,280.48,736.91,279.91Z" transform="translate(-694.86 -258.56)"/><path class="cls-12" d="M699,286.21s14.48,4.84,46.41,8.87c0,0-25.55-4.67-35-11.19C710.45,283.89,702.14,284.31,699,286.21Z" transform="translate(-694.86 -258.56)"/><path class="cls-13" d="M776.58,268.29s6.47,4.57,35,6.45c0,0-6.13,5.55-35.41,3.27C776.17,278,773.93,273.85,776.58,268.29Z" transform="translate(-694.86 -258.56)"/><path class="cls-14" d="M782.21,267.78s28.84,7,45.46,5.64,24.69.56,24.69.56-16.22-4.31-23.61-5.25S787.47,267.09,782.21,267.78Z" transform="translate(-694.86 -258.56)"/><path class="cls-15" d="M840.31,265.82s-7.37,7.05-16.8,7.05a140.66,140.66,0,0,1-38.27-5.68s-4.45-2-1.82-3.07c1.07-.44,10.59-5.57,31.69-5.56,8.8,0,19.52,2.36,22.73,3.12l.95.23s3.47,1.51,3.79,2.21S840.31,265.82,840.31,265.82Z" transform="translate(-694.86 -258.56)"/><path class="cls-16" d="M840.31,265.82s-7.37,7.05-16.8,7.05a140.66,140.66,0,0,1-38.27-5.68,10.78,10.78,0,0,0,4.6-2.25v1.13s14.69,3.22,25.11,3.32l3.06-.6a6,6,0,0,0,1.48,1,20,20,0,0,1,3,1.8l1.78-4.24h0c.48-.09,8.26-1.64,13.51-5.64l.95.23s3.47,1.51,3.79,2.21S840.31,265.82,840.31,265.82Z" transform="translate(-694.86 -258.56)"/><path class="cls-16" d="M840.31,265.82s-7.37,7.05-16.8,7.05c1.6-1.54.8-5.54.8-5.54h0c.48-.09,8.26-1.64,13.51-5.64l.95.23s3.47,1.51,3.79,2.21S840.31,265.82,840.31,265.82Z" transform="translate(-694.86 -258.56)"/><path class="cls-17" d="M803.61,261a106.94,106.94,0,0,0,12.57.66,30.27,30.27,0,0,0,8.65-1.86S811.69,261.08,803.61,261Z" transform="translate(-694.86 -258.56)"/><path class="cls-6" d="M758.68,305.38l.37-8.89s2.37-10.85,37.86.18c0,0,6.7-14.62,40.93-6.43,0,0,7.44-7.79,26.64-5.7l-1.68,9.4S787.67,306.58,758.68,305.38Z" transform="translate(-694.86 -258.56)"/></g></g></g></svg>