<svg xmlns="http://www.w3.org/2000/svg" viewBox="0 0 498.54 311.11"><defs><style>.cls-1{isolation:isolate;}.cls-2{fill:#acabae;}.cls-3,.cls-9{fill:#655e70;}.cls-3{opacity:0.46;mix-blend-mode:multiply;}.cls-4{fill:#3d3f3f;}.cls-5{fill:#edd4ab;}.cls-20,.cls-6{fill:#666;}.cls-7{fill:#515454;}.cls-8{fill:#462c4a;}.cls-10{fill:#193242;}.cls-11{fill:#47494f;}.cls-12{fill:#7d8190;}.cls-13{fill:#9397a5;}.cls-14{fill:#202323;}.cls-15{fill:#422d51;}.cls-16{fill:#2a303d;}.cls-17{fill:#969494;}.cls-18{fill:#b2afaf;}.cls-19{fill:#eee3ce;}.cls-20{opacity:0.16;}.cls-20,.cls-21,.cls-22{mix-blend-mode:screen;}.cls-21,.cls-22{fill:#8ac9cb;}.cls-21{opacity:0.13;}.cls-22{opacity:0.51;}.cls-23{fill:#d2d8ec;}.cls-24{fill:#952c43;}</style></defs><title>tape</title><g class="cls-1"><g id="Layer_1" data-name="Layer 1"><path d="M760.48,921H276.59l-7.32-7.32V835.4H767.8v78.25Z" transform="translate(-269.27 -635.74)"/><rect class="cls-2" x="6.68" width="487.58" height="306.48" rx="17.45"/><path class="cls-3" d="M763.52,653a17.45,17.45,0,0,0-17.61-17.29H293.55A17.59,17.59,0,0,0,277,647.24c74.36,2.24,348.61,13.38,392.69,56.67,35.89,35.25,65.32,164.32,79.66,238a17.39,17.39,0,0,0,14.21-17Z" transform="translate(-269.27 -635.74)"/><rect class="cls-4" x="6.68" y="44.91" width="487.58" height="2.13"/><rect class="cls-4" x="6.68" y="63.34" width="487.58" height="2.12"/><rect class="cls-4" x="6.68" y="77.42" width="487.58" height="2.12"/><rect class="cls-4" x="6.68" y="95.85" width="487.58" height="2.13"/><path class="cls-5" d="M715.94,660.62H321.46L298.4,683.68v223.4l15.4,15.4H359l14.17-61.87H658.73l14.17,61.87h50.7l15.4-15.4V683.68Z" transform="translate(-269.27 -635.74)"/><polygon class="cls-6" points="406.7 282.89 392.54 221.03 100.87 221.03 86.7 282.89 46.13 282.89 32.98 269.75 32.98 49.54 53.79 28.73 445.08 28.73 465.88 49.54 465.88 269.75 452.74 282.89 406.7 282.89"/><polygon class="cls-7" points="403.58 309.51 89.82 309.51 108.03 230.01 385.38 230.01 403.58 309.51"/><polygon class="cls-8" points="385.38 230.01 108.03 230.01 107.59 231.94 385.82 231.94 385.38 230.01"/><polygon class="cls-8" points="386.19 233.55 107.22 233.55 106.33 237.4 387.07 237.4 386.19 233.55"/><polygon class="cls-8" points="387.44 239.01 105.97 239.01 105.08 242.86 388.32 242.86 387.44 239.01"/><polygon class="cls-8" points="388.69 244.47 104.72 244.47 103.83 248.32 389.57 248.32 388.69 244.47"/><polygon class="cls-8" points="389.94 249.94 103.46 249.94 102.58 253.78 390.82 253.78 389.94 249.94"/><polygon class="cls-8" points="391.19 255.4 102.21 255.4 101.33 259.25 392.07 259.25 391.19 255.4"/><polygon class="cls-8" points="392.44 260.86 100.96 260.86 100.08 264.71 393.32 264.71 392.44 260.86"/><polygon class="cls-8" points="393.69 266.32 99.71 266.32 98.83 270.17 394.57 270.17 393.69 266.32"/><polygon class="cls-8" points="394.94 271.78 98.46 271.78 97.58 275.63 395.82 275.63 394.94 271.78"/><polygon class="cls-8" points="396.19 277.25 97.21 277.25 96.33 281.1 397.07 281.1 396.19 277.25"/><polygon class="cls-8" points="397.44 282.71 95.96 282.71 95.08 286.56 398.32 286.56 397.44 282.71"/><polygon class="cls-8" points="398.69 288.17 94.71 288.17 93.83 292.02 399.58 292.02 398.69 288.17"/><polygon class="cls-8" points="399.95 293.63 93.46 293.63 92.58 297.48 400.83 297.48 399.95 293.63"/><polygon class="cls-8" points="401.2 299.09 92.21 299.09 91.33 302.94 402.08 302.94 401.2 299.09"/><polygon class="cls-8" points="402.45 304.55 90.96 304.55 90.07 308.4 403.33 308.4 402.45 304.55"/><path class="cls-9" d="M576.35,946.84h-122l11.81-33.53a11.7,11.7,0,0,1,11-7.81H553.5a11.7,11.7,0,0,1,11,7.81Z" transform="translate(-269.27 -635.74)"/><path class="cls-10" d="M466.18,920.53a11.7,11.7,0,0,1,11-7.81H553.5a11.7,11.7,0,0,1,11,7.81l9.27,26.31h2.54l-11.81-33.53a11.7,11.7,0,0,0-11-7.81H477.22a11.7,11.7,0,0,0-11,7.81l-11.81,33.53h2.54Z" transform="translate(-269.27 -635.74)"/><path d="M525.68,927.35a7,7,0,1,1-7-7A7,7,0,0,1,525.68,927.35Z" transform="translate(-269.27 -635.74)"/><path class="cls-11" d="M518.7,933a5.7,5.7,0,1,1,5.7-5.69A5.7,5.7,0,0,1,518.7,933Z" transform="translate(-269.27 -635.74)"/><path d="M458.77,914.91a7.74,7.74,0,1,1-7.74-7.74A7.74,7.74,0,0,1,458.77,914.91Z" transform="translate(-269.27 -635.74)"/><path class="cls-11" d="M451,921.36a6.46,6.46,0,1,1,6.46-6.45A6.46,6.46,0,0,1,451,921.36Z" transform="translate(-269.27 -635.74)"/><path d="M409.11,922.64a7.74,7.74,0,1,1-7.74-7.73A7.73,7.73,0,0,1,409.11,922.64Z" transform="translate(-269.27 -635.74)"/><path class="cls-11" d="M401.37,929.1a6.46,6.46,0,1,1,6.46-6.46A6.46,6.46,0,0,1,401.37,929.1Z" transform="translate(-269.27 -635.74)"/><path d="M587,914.91a7.74,7.74,0,1,1-7.74-7.74A7.74,7.74,0,0,1,587,914.91Z" transform="translate(-269.27 -635.74)"/><path class="cls-11" d="M579.25,921.36a6.46,6.46,0,1,1,6.46-6.45A6.46,6.46,0,0,1,579.25,921.36Z" transform="translate(-269.27 -635.74)"/><path d="M637.4,923.86a7.74,7.74,0,1,1-7.74-7.74A7.74,7.74,0,0,1,637.4,923.86Z" transform="translate(-269.27 -635.74)"/><path class="cls-11" d="M629.66,930.31a6.46,6.46,0,1,1,6.46-6.45A6.45,6.45,0,0,1,629.66,930.31Z" transform="translate(-269.27 -635.74)"/><path class="cls-12" d="M303,652.27a11.08,11.08,0,1,1-11.08-11.07A11.08,11.08,0,0,1,303,652.27Z" transform="translate(-269.27 -635.74)"/><path class="cls-13" d="M284.21,655.42a11.08,11.08,0,0,1,16.71-9.53,11.07,11.07,0,1,0-14.69,15.91A11,11,0,0,1,284.21,655.42Z" transform="translate(-269.27 -635.74)"/><path d="M297,650.91h-3.44v-4.23a13.82,13.82,0,0,0-1.37-1.86,13.11,13.11,0,0,0-1.38,1.86v4.23h-4.07a12.16,12.16,0,0,0-1.7,1.37,11.57,11.57,0,0,0,1.7,1.38h4.07v4.22a22.21,22.21,0,0,0,1.37,1.87c.55-.62.9-1.25,1.36-1.87v-4.22H297a20.51,20.51,0,0,0,1.71-1.37C298.13,651.72,297.56,651.37,297,650.91Z" transform="translate(-269.27 -635.74)"/><path class="cls-12" d="M754.17,923.86a11.08,11.08,0,1,1-11.08-11.08A11.08,11.08,0,0,1,754.17,923.86Z" transform="translate(-269.27 -635.74)"/><path class="cls-13" d="M735.42,927a11.08,11.08,0,0,1,16.72-9.54,11.08,11.08,0,1,0-14.69,15.92A11.08,11.08,0,0,1,735.42,927Z" transform="translate(-269.27 -635.74)"/><path d="M748.21,922.49h-3.44v-4.22a14.55,14.55,0,0,0-1.37-1.87,13.77,13.77,0,0,0-1.38,1.87v4.22H738a12.17,12.17,0,0,0-1.71,1.38,12.07,12.07,0,0,0,1.71,1.37H742v4.23a22.1,22.1,0,0,0,1.37,1.86c.55-.62.9-1.24,1.36-1.86v-4.23h3.44c.57-.46,1.14-.81,1.71-1.36A20.51,20.51,0,0,0,748.21,922.49Z" transform="translate(-269.27 -635.74)"/><circle class="cls-12" cx="743.09" cy="654.73" r="11.08" transform="translate(-190.39 753.62) rotate(-89.26)"/><path class="cls-13" d="M735.42,657.88a11.08,11.08,0,0,1,16.72-9.53,11.07,11.07,0,1,0-14.69,15.91A11,11,0,0,1,735.42,657.88Z" transform="translate(-269.27 -635.74)"/><path d="M748.21,653.37h-3.44v-4.23a13.82,13.82,0,0,0-1.37-1.86,13.11,13.11,0,0,0-1.38,1.86v4.23H738a12.07,12.07,0,0,0-1.71,1.37,12.17,12.17,0,0,0,1.71,1.38H742v4.22c.46.62.81,1.24,1.37,1.87.55-.63.9-1.25,1.36-1.87V656.1h3.44a20.51,20.51,0,0,0,1.71-1.37C749.35,654.18,748.78,653.83,748.21,653.37Z" transform="translate(-269.27 -635.74)"/><polygon class="cls-14" points="89.82 309.51 108.03 230.01 385.38 230.01 403.58 309.51 381.94 233.55 111.35 233.55 89.82 309.51"/><path class="cls-15" d="M492.83,774.11A78.82,78.82,0,1,1,414,695.28,78.82,78.82,0,0,1,492.83,774.11Z" transform="translate(-269.27 -635.74)"/><path class="cls-16" d="M486.77,774.11A72.76,72.76,0,1,1,414,701.35,72.76,72.76,0,0,1,486.77,774.11Z" transform="translate(-269.27 -635.74)"/><path class="cls-15" d="M484,774.11a70,70,0,1,1-70-70A70,70,0,0,1,484,774.11Z" transform="translate(-269.27 -635.74)"/><path class="cls-16" d="M481.69,774.11A67.68,67.68,0,1,1,414,706.43,67.68,67.68,0,0,1,481.69,774.11Z" transform="translate(-269.27 -635.74)"/><path class="cls-15" d="M479.12,774.11A65.11,65.11,0,1,1,414,709,65.11,65.11,0,0,1,479.12,774.11Z" transform="translate(-269.27 -635.74)"/><path class="cls-16" d="M477.1,774.11A63.09,63.09,0,1,1,414,711,63.09,63.09,0,0,1,477.1,774.11Z" transform="translate(-269.27 -635.74)"/><path class="cls-15" d="M475.11,774.11A61.1,61.1,0,1,1,414,713,61.1,61.1,0,0,1,475.11,774.11Z" transform="translate(-269.27 -635.74)"/><path class="cls-16" d="M473,774.11a59,59,0,1,1-59-59A59,59,0,0,1,473,774.11Z" transform="translate(-269.27 -635.74)"/><path class="cls-15" d="M470.3,774.11A56.29,56.29,0,1,1,414,717.82,56.29,56.29,0,0,1,470.3,774.11Z" transform="translate(-269.27 -635.74)"/><polygon class="cls-15" points="92.21 258.83 67.29 153.08 70.73 156.8 93.89 251.86 92.21 258.83"/><polygon class="cls-15" points="401.06 258.25 398.61 248.32 408.93 155.53 414.21 144.62 401.06 258.25"/><path d="M443.29,774.11A29.28,29.28,0,1,1,414,744.83,29.28,29.28,0,0,1,443.29,774.11Z" transform="translate(-269.27 -635.74)"/><path d="M443.29,774.11A29.28,29.28,0,1,1,414,744.83,29.28,29.28,0,0,1,443.29,774.11Z" transform="translate(-269.27 -635.74)"/><path class="cls-17" d="M434.69,786.6c.63.39.78,2.08.75,2.85l-2.8,3.3c-.76.16-2.45.28-2.93-.27l-4,2.79c.35.65-.36,2.19-.78,2.84l-4.07,1.46c-.73-.24-2.26-1-2.4-1.7l-4.89.4c0,.73-1.41,1.71-2.1,2.07l-4.25-.78c-.52-.57-1.47-2-1.23-2.67l-4.44-2.1c-.38.63-2.07.78-2.85.74l-3.29-2.79c-.16-.76-.29-2.45.27-2.93l-2.79-4c-.65.35-2.19-.36-2.84-.78l-1.46-4.07c.24-.73,1-2.26,1.7-2.4l-.4-4.89c-.74,0-1.71-1.41-2.07-2.1l.78-4.25c.57-.52,2-1.47,2.67-1.24l2.1-4.43c-.63-.39-.78-2.08-.74-2.85l2.79-3.29c.76-.17,2.45-.29,2.93.26l4-2.79c-.35-.65.36-2.19.78-2.84l4.07-1.45c.73.24,2.26,1,2.4,1.7l4.89-.4c0-.74,1.41-1.72,2.1-2.07l4.25.77c.52.58,1.47,2,1.23,2.68l4.44,2.09c.38-.62,2.08-.78,2.85-.74l3.29,2.8c.16.75.29,2.44-.27,2.93l2.8,4c.64-.35,2.18.37,2.83.78l1.46,4.07c-.24.74-1,2.27-1.7,2.41l.4,4.89c.74,0,1.71,1.41,2.07,2.09l-.78,4.26c-.57.51-2,1.47-2.67,1.23Zm-12.18-22.51A13.14,13.14,0,1,0,424,782.6,13.14,13.14,0,0,0,422.51,764.09Z" transform="translate(-269.27 -635.74)"/><path class="cls-18" d="M407.87,798.38a4.31,4.31,0,0,1-.67-1.2l.33-1L401,793.14l-.53.87a4.41,4.41,0,0,1-1.35.24l-2.58-2.19a4.24,4.24,0,0,1,0-1.37l.77-.67-4.1-5.92-.9.48a4.47,4.47,0,0,1-1.29-.47l-1.14-3.18a4.58,4.58,0,0,1,.7-1.18l1-.19-.58-7.18-1,0a4.47,4.47,0,0,1-.89-1.05l.61-3.33a4.43,4.43,0,0,1,1.19-.67l1,.33,3.08-6.51-.87-.53a4.26,4.26,0,0,1-.24-1.36l2.18-2.57a5.31,5.31,0,0,1,.72,0,2.25,2.25,0,0,1,.66.07l.67.76,5.92-4.1-.48-.89a4.4,4.4,0,0,1,.46-1.29l3.19-1.14a4.31,4.31,0,0,1,1.18.7l.19,1,7.18-.59,0-1a4.07,4.07,0,0,1,1.05-.88l3.33.6a4.31,4.31,0,0,1,.67,1.2l-.33,1,6.51,3.08.53-.86a4.34,4.34,0,0,1,1.35-.25l2.58,2.19a4.31,4.31,0,0,1,0,1.38l-.76.67,4.09,5.92.9-.48a4.13,4.13,0,0,1,1.29.46l1.14,3.18a4.41,4.41,0,0,1-.7,1.18l-1,.2.59,7.18,1,0a4.51,4.51,0,0,1,.88,1l-.6,3.32a4.32,4.32,0,0,1-1.2.67l-1-.33L433,787.09l.87.54a4.25,4.25,0,0,1,.24,1.35L432,791.56c-.21,0-.46,0-.72,0a2.93,2.93,0,0,1-.66-.06l-.67-.77-5.92,4.1.48.9a4.5,4.5,0,0,1-.46,1.29l-3.19,1.14a4.77,4.77,0,0,1-1.18-.7l-.19-1-7.18.59,0,1a4.27,4.27,0,0,1-1.05.89ZM414,759.69a14.41,14.41,0,1,0,9.32,3.42A14.37,14.37,0,0,0,414,759.69Z" transform="translate(-269.27 -635.74)"/><path class="cls-19" d="M422.51,764.09A13.14,13.14,0,1,0,424,782.6,13.14,13.14,0,0,0,422.51,764.09Z" transform="translate(-269.27 -635.74)"/><path d="M414,786a11.85,11.85,0,1,1,9-4.19,11.85,11.85,0,0,1-9,4.19Z" transform="translate(-269.27 -635.74)"/><path class="cls-15" d="M683.86,774.11a50.25,50.25,0,1,1-50.24-50.24A50.25,50.25,0,0,1,683.86,774.11Z" transform="translate(-269.27 -635.74)"/><path class="cls-16" d="M679.19,774.11a45.58,45.58,0,1,1-45.57-45.58A45.57,45.57,0,0,1,679.19,774.11Z" transform="translate(-269.27 -635.74)"/><path class="cls-15" d="M677,774.11a43.38,43.38,0,1,1-43.37-43.38A43.37,43.37,0,0,1,677,774.11Z" transform="translate(-269.27 -635.74)"/><path class="cls-16" d="M674.7,774.11A41.08,41.08,0,1,1,633.62,733,41.09,41.09,0,0,1,674.7,774.11Z" transform="translate(-269.27 -635.74)"/><path class="cls-15" d="M672.85,774.11a39.24,39.24,0,1,1-39.23-39.24A39.23,39.23,0,0,1,672.85,774.11Z" transform="translate(-269.27 -635.74)"/><path d="M662.9,774.11a29.29,29.29,0,1,1-29.28-29.28A29.28,29.28,0,0,1,662.9,774.11Z" transform="translate(-269.27 -635.74)"/><path d="M662.9,774.11a29.29,29.29,0,1,1-29.28-29.28A29.28,29.28,0,0,1,662.9,774.11Z" transform="translate(-269.27 -635.74)"/><path class="cls-17" d="M654.3,786.6c.63.39.78,2.08.74,2.85l-2.79,3.3c-.76.16-2.45.28-2.94-.27l-4,2.79c.35.65-.36,2.19-.78,2.84l-4.07,1.46c-.74-.24-2.26-1-2.41-1.7l-4.89.4c0,.73-1.41,1.71-2.09,2.07l-4.25-.78c-.52-.57-1.48-2-1.24-2.67l-4.43-2.1c-.39.63-2.08.78-2.85.74l-3.3-2.79c-.16-.76-.28-2.45.27-2.93l-2.79-4c-.65.35-2.19-.36-2.84-.78l-1.45-4.07c.23-.73,1-2.26,1.7-2.4l-.41-4.89c-.73,0-1.71-1.41-2.06-2.1l.77-4.25c.57-.52,2-1.47,2.67-1.24l2.1-4.43c-.62-.39-.78-2.08-.74-2.85l2.8-3.29c.75-.17,2.44-.29,2.93.26l4-2.79c-.35-.65.37-2.19.78-2.84l4.07-1.45c.74.24,2.27,1,2.41,1.7l4.89-.4c0-.74,1.4-1.72,2.09-2.07l4.25.77c.52.58,1.48,2,1.24,2.68l4.43,2.09c.39-.62,2.08-.78,2.85-.74l3.3,2.8c.16.75.28,2.44-.27,2.93l2.79,4c.65-.35,2.19.37,2.84.78l1.45,4.07c-.23.74-1,2.27-1.69,2.41l.4,4.89c.73,0,1.71,1.41,2.06,2.09l-.77,4.26c-.57.51-2,1.47-2.67,1.23Zm-12.19-22.51a13.13,13.13,0,1,0,1.52,18.51A13.14,13.14,0,0,0,642.11,764.09Z" transform="translate(-269.27 -635.74)"/><path class="cls-18" d="M627.48,798.38a4.31,4.31,0,0,1-.67-1.2l.33-1-6.51-3.08-.54.87a4.28,4.28,0,0,1-1.35.24l-2.58-2.19a4.55,4.55,0,0,1,0-1.37L617,790l-4.1-5.92-.89.48a4.62,4.62,0,0,1-1.3-.47l-1.14-3.18a4.29,4.29,0,0,1,.71-1.18l1-.19-.59-7.18-1,0a4.25,4.25,0,0,1-.88-1.05l.6-3.33a4.31,4.31,0,0,1,1.2-.67l1,.33,3.08-6.51-.86-.53a4.5,4.5,0,0,1-.25-1.36l2.19-2.57a5.16,5.16,0,0,1,.71,0,2.28,2.28,0,0,1,.67.07l.66.76,5.93-4.1-.49-.89a4.2,4.2,0,0,1,.47-1.29l3.18-1.14a4.16,4.16,0,0,1,1.18.7l.2,1,7.18-.59,0-1a4.16,4.16,0,0,1,1-.88l3.33.6a4.31,4.31,0,0,1,.67,1.2l-.33,1,6.51,3.08.54-.86a4.21,4.21,0,0,1,1.35-.25l2.58,2.19a4.63,4.63,0,0,1,0,1.38l-.77.67,4.1,5.92.89-.48a4.17,4.17,0,0,1,1.3.46l1.14,3.18a4.14,4.14,0,0,1-.71,1.18l-1,.2.59,7.18,1,0a4.27,4.27,0,0,1,.89,1l-.61,3.32a4.06,4.06,0,0,1-1.2.67l-1-.33-3.08,6.51.87.54a4.55,4.55,0,0,1,.24,1.35l-2.19,2.58c-.21,0-.46,0-.71,0a2.85,2.85,0,0,1-.66-.06l-.67-.77-5.92,4.1.48.9a4.29,4.29,0,0,1-.47,1.29l-3.18,1.14a4.41,4.41,0,0,1-1.18-.7l-.2-1-7.17.59,0,1a4.69,4.69,0,0,1-1.05.89Zm6.14-38.69a14.41,14.41,0,1,0,9.32,3.42A14.4,14.4,0,0,0,633.62,759.69Z" transform="translate(-269.27 -635.74)"/><path class="cls-19" d="M642.11,764.09a13.13,13.13,0,1,0,1.52,18.51A13.14,13.14,0,0,0,642.11,764.09Z" transform="translate(-269.27 -635.74)"/><path d="M633.61,786a11.85,11.85,0,1,1,9-4.19,11.84,11.84,0,0,1-9,4.19Z" transform="translate(-269.27 -635.74)"/><path class="cls-12" d="M306.16,923.86a11.08,11.08,0,1,1-11.08-11.08A11.08,11.08,0,0,1,306.16,923.86Z" transform="translate(-269.27 -635.74)"/><path class="cls-13" d="M287.41,927a11.08,11.08,0,0,1,16.72-9.54,11.08,11.08,0,1,0-14.69,15.92A11.08,11.08,0,0,1,287.41,927Z" transform="translate(-269.27 -635.74)"/><path d="M300.2,922.49h-3.44v-4.22a14.55,14.55,0,0,0-1.37-1.87,13.77,13.77,0,0,0-1.38,1.87v4.22H290a12.17,12.17,0,0,0-1.71,1.38,12.07,12.07,0,0,0,1.71,1.37H294v4.23a22.1,22.1,0,0,0,1.37,1.86c.55-.62.9-1.24,1.36-1.86v-4.23h3.44c.57-.46,1.14-.81,1.71-1.36A20.51,20.51,0,0,0,300.2,922.49Z" transform="translate(-269.27 -635.74)"/><polygon class="cls-20" points="406.7 282.89 392.54 221.03 100.87 221.03 86.7 282.89 46.13 282.89 32.98 269.75 32.98 49.54 53.79 28.73 445.08 28.73 465.88 49.54 465.88 269.75 452.74 282.89 406.7 282.89"/><polygon class="cls-21" points="445.08 28.73 289.27 28.73 360.39 221.03 392.54 221.03 406.7 282.89 452.74 282.89 465.88 269.75 465.88 49.54 445.08 28.73"/><polygon class="cls-22" points="53.79 28.73 32.98 49.54 32.98 201.77 62.99 282.89 86.7 282.89 100.87 221.03 125.08 221.03 53.96 28.73 53.79 28.73"/><polygon class="cls-22" points="62.67 28.73 133.79 221.03 195.05 221.03 123.93 28.73 62.67 28.73"/><polygon class="cls-22" points="135.37 28.73 206.49 221.03 250.22 221.03 179.1 28.73 135.37 28.73"/><polygon class="cls-22" points="188.65 28.73 259.77 221.03 360.39 221.03 289.27 28.73 188.65 28.73"/><rect class="cls-23" x="412.39" y="49.75" width="32.3" height="41.88" rx="6.29"/><path class="cls-24" d="M695.1,711.93l-1.28,6.85h-4.21l5.49-26.69h5.33L706,718.78h-4.37l-1.38-6.85Zm4.56-4.52c-1.25-6.57-.86-3.9-2-10.81h0c-.27,1.59-.53,3.61-.83,5.15l-1.06,5.66Z" transform="translate(-269.27 -635.74)"/></g></g></svg>